HIERARCHY
ROOT Hips
{
	OFFSET 0.000000 89.005402 0.000000
	CHANNELS 6 Xposition Yposition Zposition Xrotation Yrotation Zrotation
	JOINT Spine
	{
		OFFSET 0.116900 10.681000 0.373400
		CHANNELS 3 Xrotation Yrotation Zrotation
		JOINT Spine1
		{
			OFFSET 0.000000 13.840401 0.053500
			CHANNELS 3 Xrotation Yrotation Zrotation
			JOINT Spine2
			{
				OFFSET 0.000000 14.712700 -0.366200
				CHANNELS 3 Xrotation Yrotation Zrotation
				JOINT Neck
				{
					OFFSET 0.000000 35.415497 -3.314200
					CHANNELS 3 Xrotation Yrotation Zrotation
					JOINT Head
					{
						OFFSET 0.000000 16.899200 1.218300
						CHANNELS 3 Xrotation Yrotation Zrotation
						JOINT HeadTop_End
						{
							OFFSET 0.000000 22.206207 2.192500
							CHANNELS 3 Xrotation Yrotation Zrotation
							End Site
							{
								OFFSET 0.000000 22.314178 0.000000
							}
						}
					}
				}
				JOINT LeftShoulder
				{
					OFFSET 12.896400 26.716293 -4.548400
					CHANNELS 3 Xrotation Yrotation Zrotation
					JOINT LeftArm
					{
						OFFSET 19.027000 -4.857010 -1.718400
						CHANNELS 3 Xrotation Yrotation Zrotation
						JOINT LeftForeArm
						{
							OFFSET 24.179897 0.000000 0.000000
							CHANNELS 3 Xrotation Yrotation Zrotation
							JOINT LeftHand
							{
								OFFSET 27.156403 0.000000 0.000000
								CHANNELS 3 Xrotation Yrotation Zrotation
								JOINT LeftHandIndex1
								{
									OFFSET 16.441200 0.000000 0.000000
									CHANNELS 3 Xrotation Yrotation Zrotation
									JOINT LeftHandIndex2
									{
										OFFSET 4.821899 0.000000 0.000000
										CHANNELS 3 Xrotation Yrotation Zrotation
										JOINT LeftHandIndex3
										{
											OFFSET 6.386497 0.000000 0.000000
											CHANNELS 3 Xrotation Yrotation Zrotation
											JOINT LeftHandIndex4
											{
												OFFSET 5.188988 0.000000 0.000000
												CHANNELS 3 Xrotation Yrotation Zrotation
												End Site
												{
													OFFSET -0.178703 5.185913 0.000177
												}
											}
										}
									}
								}
								JOINT LeftHandThumb1
								{
									OFFSET 6.534897 -5.032593 5.900300
									CHANNELS 3 Xrotation Yrotation Zrotation
									JOINT LeftHandThumb2
									{
										OFFSET 3.818176 -2.204422 2.204423
										CHANNELS 3 Xrotation Yrotation Zrotation
										JOINT LeftHandThumb3
										{
											OFFSET 3.252098 -1.877594 1.877601
											CHANNELS 3 Xrotation Yrotation Zrotation
											JOINT LeftHandThumb4
											{
												OFFSET 5.251778 -3.032120 3.032117
												CHANNELS 3 Xrotation Yrotation Zrotation
												End Site
												{
													OFFSET 0.000023 6.780014 0.000000
												}
											}
										}
									}
								}
							}
						}
					}
				}
				JOINT RightShoulder
				{
					OFFSET -12.896300 26.716293 -4.548400
					CHANNELS 3 Xrotation Yrotation Zrotation
					JOINT RightArm
					{
						OFFSET -19.027000 -4.857010 -1.718400
						CHANNELS 3 Xrotation Yrotation Zrotation
						JOINT RightForeArm
						{
							OFFSET -24.179897 0.000000 0.000000
							CHANNELS 3 Xrotation Yrotation Zrotation
							JOINT RightHand
							{
								OFFSET -27.156403 0.000000 0.000000
								CHANNELS 3 Xrotation Yrotation Zrotation
								JOINT RightHandThumb1
								{
									OFFSET -6.591202 -4.852203 5.988100
									CHANNELS 3 Xrotation Yrotation Zrotation
									JOINT RightHandThumb2
									{
										OFFSET -3.818176 -2.204422 2.204423
										CHANNELS 3 Xrotation Yrotation Zrotation
										JOINT RightHandThumb3
										{
											OFFSET -3.252098 -1.877594 1.877601
											CHANNELS 3 Xrotation Yrotation Zrotation
											JOINT RightHandThumb4
											{
												OFFSET -5.251778 -3.032120 3.032117
												CHANNELS 3 Xrotation Yrotation Zrotation
												End Site
												{
													OFFSET -0.000023 6.780014 0.000000
												}
											}
										}
									}
								}
								JOINT RightHandIndex1
								{
									OFFSET -16.029404 0.000000 0.000000
									CHANNELS 3 Xrotation Yrotation Zrotation
									JOINT RightHandIndex2
									{
										OFFSET -5.213303 0.000000 0.000000
										CHANNELS 3 Xrotation Yrotation Zrotation
										JOINT RightHandIndex3
										{
											OFFSET -6.386528 0.000000 0.000000
											CHANNELS 3 Xrotation Yrotation Zrotation
											JOINT RightHandIndex4
											{
												OFFSET -5.189026 0.000000 0.000000
												CHANNELS 3 Xrotation Yrotation Zrotation
												End Site
												{
													OFFSET 0.236702 5.183624 0.001972
												}
											}
										}
									}
								}
							}
						}
					}
				}
			}
		}
	}
	JOINT LeftUpLeg
	{
		OFFSET 14.073000 -7.904099 -1.463000
		CHANNELS 3 Xrotation Yrotation Zrotation
		JOINT LeftLeg
		{
			OFFSET -0.109806 -34.073280 4.093200
			CHANNELS 3 Xrotation Yrotation Zrotation
			JOINT LeftFoot
			{
				OFFSET 0.109806 -29.899420 -6.319000
				CHANNELS 3 Xrotation Yrotation Zrotation
				JOINT LeftToeBase
				{
					OFFSET 1.551100 -14.988700 20.535801
					CHANNELS 3 Xrotation Yrotation Zrotation
					JOINT LeftToe_End
					{
						OFFSET 0.221200 0.570800 13.248301
						CHANNELS 3 Xrotation Yrotation Zrotation
						End Site
						{
							OFFSET 0.000000 13.262435 0.000000
						}
					}
				}
			}
		}
	}
	JOINT RightUpLeg
	{
		OFFSET -13.839300 -7.904099 -1.463000
		CHANNELS 3 Xrotation Yrotation Zrotation
		JOINT RightLeg
		{
			OFFSET 0.109694 -34.073219 4.093300
			CHANNELS 3 Xrotation Yrotation Zrotation
			JOINT RightFoot
			{
				OFFSET -0.109694 -29.899384 -6.319200
				CHANNELS 3 Xrotation Yrotation Zrotation
				JOINT RightToeBase
				{
					OFFSET -1.551100 -14.988700 20.535801
					CHANNELS 3 Xrotation Yrotation Zrotation
					JOINT RightToe_End
					{
						OFFSET -0.221200 0.570900 13.248299
						CHANNELS 3 Xrotation Yrotation Zrotation
						End Site
						{
							OFFSET 0.000000 13.262440 0.000000
						}
					}
				}
			}
		}
	}
}
MOTION
Frames: 4
Frame Time: 0.033333
-9.234747 60.205742 39.894661 38.990763 33.901320 -24.910313 8.522783 0.304341 0.077430 7.909225 0.586633 2.864746 7.856448 1.392517 2.752183 3.689445 -4.800229 -12.649755 -32.474483 -26.826495 -4.312890 0.000002 -0.000001 -0.000000 -0.486246 -8.454728 -13.957708 45.282532 -10.782249 -35.257508 -0.000005 -65.239030 0.000007 30.736142 2.575976 26.072504 -1.792109 -2.737598 -23.666740 0.410292 2.345569 -19.841339 0.009040 0.353521 -2.930741 -0.000002 0.000003 -0.000003 -3.005879 0.855865 10.540530 -3.361466 6.053130 -8.198017 2.510062 10.534429 0.750068 0.000002 -0.000001 -0.000002 -60.032001 25.923001 -3.416094 -56.319708 -14.430453 40.398172 0.000013 23.912366 -0.000023 -20.886734 7.295912 3.233687 -12.693455 6.591769 -13.668575 -0.996014 -15.022569 15.251005 -9.296289 23.270642 -1.268265 -0.000003 -0.000000 0.000002 7.861469 -7.133353 82.301136 9.331386 -6.528611 110.104350 0.946061 -3.506698 30.188091 0.000001 -0.000001 -0.000000 -45.822732 -17.598280 38.283381 69.432793 2.653020 8.964742 -45.650922 -13.035960 -41.819852 -26.069241 0.774568 -5.173597 -0.000000 0.000002 0.000000 -94.322816 4.614090 -28.392740 72.163004 12.475315 7.179169 -7.838173 0.060247 8.263288 -0.000012 -0.000000 0.000002 -0.000000 -0.000000 -0.000000 
-9.016600 60.225128 39.645218 38.810064 34.871179 -25.468959 8.483701 0.489869 -0.020763 7.857795 0.807452 2.743369 7.795776 1.604878 2.617666 3.033515 -4.816585 -12.036961 -31.991278 -26.920081 -3.374525 -0.000000 0.000000 -0.000000 -0.498792 -8.477465 -14.104652 44.542266 -11.223323 -35.125218 0.000018 -65.193275 0.000020 30.827748 2.082751 25.588817 -1.762441 -2.589469 -23.966449 0.416067 2.361503 -19.981908 0.009576 0.363594 -3.014310 0.000001 -0.000002 0.000002 -2.893071 1.087322 10.645707 -3.358322 6.019616 -8.188739 2.512949 10.541666 0.748534 -0.000003 -0.000001 -0.000001 -61.467092 23.118312 -3.740816 -54.552291 -10.939351 40.625812 -0.000002 18.013313 -0.000022 -20.636399 8.363634 3.627872 -12.772357 10.442736 -22.991499 -0.996014 -15.022564 15.251005 -9.282297 23.229543 -1.270703 -0.000001 -0.000000 0.000000 7.934467 -7.123847 82.884387 9.353500 -6.520549 110.298867 0.966481 -3.541508 30.520427 -0.000001 -0.000000 -0.000000 -46.478795 -18.618150 38.224959 70.271636 2.385184 8.927413 -44.960212 -13.702815 -41.947569 -26.829982 0.823192 -4.964870 -0.000000 0.000001 0.000000 -93.060050 4.839469 -29.050488 72.200625 12.241422 7.134682 -8.282578 -0.222600 9.107787 -0.000033 0.000003 0.000001 -0.000000 -0.000000 -0.000000 
-8.849628 60.281059 39.436222 38.385366 35.687851 -26.198000 8.438675 0.474702 -0.027427 7.903535 0.808856 2.503495 7.849632 1.529820 2.386472 2.019974 -4.639944 -10.950246 -31.223008 -26.355009 -2.270532 -0.000001 0.000001 -0.000000 -0.527306 -8.518434 -14.475669 43.509183 -10.522380 -35.575146 0.000008 -65.920840 0.000030 31.166058 1.929033 24.992857 -1.673921 -2.138597 -24.984072 0.416218 2.361892 -19.985340 0.008311 0.338809 -2.808616 0.000000 -0.000000 -0.000001 -2.865621 1.147663 10.737678 -3.280014 6.296001 -8.188447 2.571074 10.698093 0.712480 -0.000001 -0.000002 -0.000001 -63.036403 20.148911 -3.554792 -52.489119 -7.950200 40.783111 0.000002 13.652758 0.000012 -16.722981 9.290818 3.640992 -12.645663 11.701397 -26.117484 -0.996017 -15.022576 15.251012 -9.288038 23.246397 -1.269685 -0.000001 -0.000002 -0.000001 7.966776 -7.119340 83.144453 9.357881 -6.518936 110.337485 0.969327 -3.546297 30.566254 0.000000 -0.000001 0.000000 -46.372528 -19.625806 38.601251 70.768464 2.367679 8.905180 -44.994151 -13.986793 -42.016148 -26.687053 0.813980 -5.000382 -0.000001 -0.000002 -0.000000 -91.598697 4.510789 -29.332275 72.066091 12.198751 7.062241 -8.731426 -0.767190 9.762441 -0.000042 -0.000003 0.000003 -0.000000 -0.000000 0.000000 
-8.705318 60.327126 39.182449 37.596223 36.365450 -26.764004 8.419120 0.374022 -0.032827 7.979850 0.720493 2.276010 7.936881 1.365723 2.172745 1.065027 -4.435324 -9.623024 -30.538677 -25.510103 -0.984023 -0.000001 -0.000001 0.000001 -0.516987 -8.487334 -14.403143 42.946898 -10.166073 -36.100251 -0.000005 -66.397130 0.000008 31.713070 2.037691 24.462357 -1.714456 -2.181339 -25.184461 0.417562 2.365605 -20.018096 0.007732 0.327080 -2.711379 -0.000001 -0.000000 0.000001 -3.091115 0.730749 10.572047 -3.300194 6.169587 -8.176429 2.528395 10.582317 0.739338 -0.000001 -0.000000 -0.000001 -64.667534 17.478014 -2.722299 -50.067701 -4.673916 41.247755 0.000005 10.720746 0.000008 -13.615478 10.476631 3.572101 -12.953992 10.788561 -23.506820 -0.990424 -15.010210 15.227756 -9.303122 23.290865 -1.267110 -0.000001 0.000003 0.000001 7.945837 -7.121120 83.011681 9.349463 -6.522047 110.263357 0.962449 -3.534685 30.455045 0.000001 -0.000001 0.000003 -45.598541 -20.497582 39.169243 71.182053 2.463613 8.885192 -45.607680 -13.871356 -41.994250 -25.932382 0.759633 -5.141585 -0.000001 0.000000 0.000000 -90.047623 3.949782 -29.342032 71.796811 12.263933 6.922780 -9.016274 -1.326758 10.341308 -0.000071 -0.000000 0.000006 -0.000000 -0.000000 -0.000000 
